<?xml version="1.0" standalone="no"?>
<!DOCTYPE svg PUBLIC "-//W3C//DTD SVG 20010904//EN"
 "http://www.w3.org/TR/2001/REC-SVG-20010904/DTD/svg10.dtd">
<svg version="1.0" xmlns="http://www.w3.org/2000/svg"
 width="1024.000000pt" height="1024.000000pt" viewBox="0 0 1024.000000 1024.000000"
 preserveAspectRatio="xMidYMid meet">
<metadata>
Created by potrace 1.11, written by Peter Selinger 2001-2013
</metadata>
<g transform="translate(0.000000,1024.000000) scale(0.100000,-0.100000)"
fill="#000000" stroke="none">
<path d="M4721 8384 c1 -27 10 -65 18 -84 17 -38 116 -189 153 -232 13 -14 38
-44 56 -66 18 -22 48 -58 67 -79 39 -44 35 -49 -45 -59 -30 -4 -64 -8 -75 -10
-108 -21 -396 -20 -487 1 -13 2 -34 7 -48 9 -122 23 -364 98 -442 137 -34 17
-38 18 -38 3 0 -52 108 -178 284 -331 l70 -60 -82 -32 c-150 -57 -289 -84
-447 -84 -75 -1 -244 10 -284 18 -10 2 -34 6 -52 8 -135 21 -148 23 -151 27
-2 1 -12 4 -23 5 -44 7 -127 25 -136 30 -5 4 -9 -4 -9 -15 0 -33 109 -134 230
-215 58 -38 107 -73 110 -76 3 -3 13 -8 23 -12 9 -3 17 -10 17 -16 0 -5 -8
-11 -17 -14 -10 -3 -63 -24 -118 -47 -141 -59 -326 -111 -445 -125 -19 -3 -48
-7 -65 -10 -16 -2 -57 -8 -90 -11 -165 -18 -255 -7 -326 40 -21 14 -41 26 -44
26 -14 0 39 -78 77 -111 58 -53 256 -152 366 -184 32 -9 28 -19 -20 -43 -70
-34 -138 -62 -138 -55 0 3 -7 0 -15 -7 -8 -7 -15 -10 -15 -6 0 3 -16 0 -36 -9
-29 -12 -162 -43 -299 -70 -75 -14 -161 -20 -295 -19 -123 0 -156 4 -215 23
-38 13 -76 28 -83 33 -18 15 -24 5 -13 -23 10 -26 59 -79 107 -117 38 -30 256
-169 288 -184 15 -6 26 -14 26 -17 0 -20 -299 -132 -412 -155 -64 -13 -99 -18
-223 -32 -44 -5 -244 -5 -285 0 -20 3 -55 11 -78 19 -42 15 -43 15 -36 -7 10
-34 76 -107 135 -148 30 -21 105 -63 167 -94 l114 -56 -34 -25 c-83 -62 -294
-173 -356 -188 -10 -3 -35 -9 -57 -15 -65 -16 -153 -24 -267 -24 l-107 1 22
-39 c24 -42 98 -123 137 -150 52 -36 101 -68 105 -68 2 0 37 -16 77 -34 73
-35 284 -116 303 -116 6 0 17 -4 25 -10 12 -7 8 -16 -20 -52 -19 -24 -46 -52
-59 -63 -14 -11 -32 -26 -40 -33 -14 -10 -12 -12 9 -7 14 3 41 7 60 9 19 3 35
5 35 6 0 1 9 3 20 4 11 2 36 6 56 10 l35 8 -17 -89 c-10 -48 -21 -122 -24
-163 -13 -181 -23 -219 -67 -279 -10 -13 -17 -25 -15 -27 1 -2 27 3 57 11 55
14 85 20 171 34 25 4 103 7 172 6 114 -2 195 8 249 30 13 5 15 2 11 -17 -3
-13 -9 -27 -13 -33 -4 -5 -10 -26 -14 -45 -3 -19 -9 -46 -12 -60 -11 -52 -11
-128 1 -201 16 -106 11 -153 -30 -284 -13 -44 -25 -83 -25 -88 0 -4 13 -1 28
7 24 12 120 41 172 51 37 7 133 16 230 20 88 4 147 10 205 19 11 1 12 -202 2
-304 -9 -80 -48 -225 -87 -321 -16 -40 -28 -74 -26 -76 2 -2 24 5 49 16 109
47 189 64 282 62 222 -7 236 -5 342 27 55 18 104 32 108 32 4 0 4 -10 1 -22
-26 -87 -31 -173 -26 -388 3 -114 -13 -194 -49 -250 -15 -23 -15 -24 4 -15
114 49 159 57 275 50 273 -16 292 -15 365 8 19 7 20 2 21 -146 1 -149 8 -269
18 -297 3 -8 8 -32 11 -54 3 -21 7 -41 10 -45 2 -4 6 -19 9 -33 12 -71 117
-299 184 -402 15 -22 29 -46 32 -51 10 -20 94 -135 97 -132 2 3 4 16 18 162 4
39 9 79 12 90 2 11 6 36 9 55 2 19 9 56 15 81 6 26 12 55 14 65 2 11 4 20 5
22 2 1 3 5 4 10 42 160 102 260 221 373 l29 28 52 -100 c73 -139 169 -269 185
-252 4 5 10 49 14 98 3 50 10 117 15 150 5 33 12 76 14 95 3 19 7 44 9 55 6
28 18 94 18 100 0 2 5 19 10 37 6 18 12 44 15 58 19 92 91 213 178 299 l52 52
18 -58 c20 -64 57 -141 90 -187 26 -37 127 -136 138 -136 4 0 5 26 1 58 -15
111 -8 373 12 483 10 56 49 167 77 224 33 65 125 202 164 244 13 14 24 29 24
33 0 5 4 8 9 8 5 0 19 -26 32 -57 41 -106 104 -227 154 -300 27 -40 51 -70 54
-68 2 3 5 78 7 167 4 204 10 262 44 386 31 114 115 264 186 335 l28 29 10 -24
c36 -91 92 -191 130 -233 25 -27 47 -47 50 -45 2 3 7 25 11 50 13 92 15 102
39 225 3 11 16 58 31 104 118 370 338 627 620 722 55 19 91 24 170 24 55 0
116 -4 135 -8 47 -11 150 -58 150 -68 0 -5 6 -9 14 -9 8 0 30 -19 50 -43 82
-100 80 -181 -10 -384 -3 -6 20 2 50 18 81 41 151 59 226 55 96 -5 93 -4 85
-24 -4 -9 -9 -28 -11 -42 -3 -14 -9 -41 -13 -60 -13 -65 -3 -158 24 -224 12
-29 19 -36 25 -26 5 8 7 17 4 22 -3 4 5 26 16 48 22 43 114 116 246 195 36 22
71 45 78 50 6 6 29 23 51 39 109 80 185 211 201 350 6 43 14 58 58 104 28 30
58 62 66 71 19 21 91 118 112 152 45 71 57 211 22 271 -8 15 -16 10 -64 -36
-89 -85 -157 -125 -281 -165 -53 -17 -55 -15 -68 44 -7 30 -17 55 -22 55 -5 0
-9 5 -9 10 0 6 -14 26 -32 45 -33 37 -68 46 -68 18 0 -22 -76 -93 -100 -93
-14 0 -18 7 -17 28 3 70 -17 150 -48 189 -36 45 -33 45 -83 9 -26 -19 -78 -44
-117 -56 -38 -13 -77 -29 -86 -36 -24 -21 -34 -17 -35 14 -5 139 -44 254 -103
299 -13 9 -18 6 -27 -17 -14 -33 -38 -48 -109 -66 -68 -18 -68 -18 -59 19 13
59 12 85 -7 124 -31 67 -29 66 -100 40 -70 -26 -122 -27 -166 -3 -75 41 -107
90 -105 162 1 65 23 105 72 133 49 27 58 27 72 -6 26 -60 91 -149 130 -177
l40 -29 51 52 c28 29 68 61 88 71 47 25 89 32 89 17 0 -27 50 -115 86 -152 76
-78 78 -79 105 -52 77 74 191 157 217 157 12 0 74 -128 97 -197 l16 -52 37 14
c112 40 182 88 197 136 7 22 23 24 59 8 33 -15 49 -58 50 -135 1 -35 6 -68 13
-75 12 -12 78 -15 136 -5 44 7 128 48 177 86 59 45 59 45 45 -10 -13 -51 -30
-83 -97 -182 -21 -31 -35 -59 -30 -61 4 -2 43 -3 87 -1 176 6 268 65 354 229
26 51 41 88 55 137 6 21 24 35 80 62 61 30 107 66 159 126 7 8 26 36 42 63 17
26 37 49 46 52 8 3 44 34 80 70 71 70 113 144 130 229 7 34 22 66 41 87 80 91
126 186 129 267 3 93 1 100 -28 106 -45 9 -138 21 -258 31 -165 15 -152 12
-316 73 -284 104 -536 172 -735 197 -22 2 -61 7 -89 11 -27 3 -63 7 -80 7 -29
1 -38 9 -85 72 -8 11 -64 70 -125 131 -60 61 -114 119 -120 128 -8 13 -28 18
-92 21 -45 1 -86 5 -91 8 -4 3 -19 8 -33 11 -27 6 -493 130 -554 148 -22 6
-44 12 -50 14 -5 1 -89 23 -185 49 -96 26 -182 48 -190 50 -8 2 -86 23 -172
46 l-158 43 -102 -32 c-57 -18 -116 -37 -133 -42 -32 -10 -58 -15 -145 -30
-30 -6 -64 -12 -75 -14 -80 -16 -321 -22 -430 -12 -117 12 -318 57 -395 89
-14 5 -30 11 -35 12 -24 5 -151 68 -167 83 -10 8 -18 12 -18 7 0 -10 -109 83
-135 115 -11 14 -28 33 -37 42 -10 10 -18 22 -18 27 0 5 -7 14 -16 22 -14 11
-15 8 -13 -37z m349 -338 c0 -11 -19 -15 -25 -6 -3 5 1 10 9 10 9 0 16 -2 16
-4z m1745 -96 c3 -5 2 -10 -4 -10 -5 0 -13 5 -16 10 -3 6 -2 10 4 10 5 0 13
-4 16 -10z m1095 -294 c0 -11 -19 -15 -25 -6 -3 5 1 10 9 10 9 0 16 -2 16 -4z
m-4400 -276 c0 -5 -2 -10 -4 -10 -3 0 -8 5 -11 10 -3 6 -1 10 4 10 6 0 11 -4
11 -10z m5065 -80 c3 -5 -3 -10 -14 -10 -12 0 -21 5 -21 10 0 6 6 10 14 10 8
0 18 -4 21 -10z m-857 -8 c58 -3 62 -57 9 -124 -13 -16 -19 -15 -83 17 -38 19
-103 47 -144 61 -90 32 -101 41 -59 42 17 0 33 2 35 4 3 4 167 3 242 0z
m-2304 -37 c-4 -8 -11 -12 -16 -9 -6 4 -5 10 3 15 19 12 19 11 13 -6z m-1844
-89 c0 -3 -4 -8 -10 -11 -5 -3 -10 -1 -10 4 0 6 5 11 10 11 6 0 10 -2 10 -4z
m4255 -66 c3 -5 1 -10 -4 -10 -6 0 -11 5 -11 10 0 6 2 10 4 10 3 0 8 -4 11
-10z m-255 -230 c0 -5 -5 -10 -11 -10 -5 0 -7 5 -4 10 3 6 8 10 11 10 2 0 4
-4 4 -10z m-4122 -375 c-3 -3 -9 2 -12 12 -6 14 -5 15 5 6 7 -7 10 -15 7 -18z
m-1199 -278 c-2 -1 -12 -9 -21 -16 -15 -12 -18 -11 -18 3 0 10 8 16 22 16 12
0 19 -1 17 -3z m6212 -50 c-10 -9 -11 -8 -5 6 3 10 9 15 12 12 3 -3 0 -11 -7
-18z m-7121 -147 c0 -5 -2 -10 -4 -10 -3 0 -8 5 -11 10 -3 6 -1 10 4 10 6 0
11 -4 11 -10z m7403 -255 c-3 -9 -8 -14 -10 -11 -3 3 -2 9 2 15 9 16 15 13 8
-4z m-2148 -124 c3 -5 2 -12 -3 -15 -5 -3 -9 1 -9 9 0 17 3 19 12 6z m-2088
-193 c-3 -8 -6 -5 -6 6 -1 11 2 17 5 13 3 -3 4 -12 1 -19z m-227 -213 c0 -8
-2 -15 -4 -15 -2 0 -6 7 -10 15 -3 8 -1 15 4 15 6 0 10 -7 10 -15z m1585 -214
c3 -5 1 -12 -5 -16 -5 -3 -10 1 -10 9 0 18 6 21 15 7z m2055 -451 c-20 -13
-33 -13 -25 0 3 6 14 10 23 10 15 0 15 -2 2 -10z m-3930 -970 c0 -5 -2 -10 -4
-10 -3 0 -8 5 -11 10 -3 6 -1 10 4 10 6 0 11 -4 11 -10z m1120 -450 c0 -5 -4
-10 -10 -10 -5 0 -10 5 -10 10 0 6 5 10 10 10 6 0 10 -4 10 -10z m-530 -598
c0 -8 -1 -13 -3 -11 -1 2 -9 12 -16 22 -12 15 -12 17 3 11 9 -3 16 -13 16 -22z
m-556 -577 c-4 -8 -11 -12 -16 -9 -6 4 -5 10 3 15 19 12 19 11 13 -6z"/>
</g>
</svg>
